<svg width="32" height="32" viewBox="0 0 32 32" fill="none" xmlns="http://www.w3.org/2000/svg">
<rect x="0.5" y="0.5" width="31" height="31" rx="15.5" stroke="currentColor"/>
<path d="M21.3818 18.1818C21.285 18.4012 21.2561 18.6445 21.2989 18.8804C21.3417 19.1164 21.4542 19.3341 21.6218 19.5055L21.6655 19.5491C21.8007 19.6842 21.908 19.8446 21.9812 20.0212C22.0544 20.1978 22.0921 20.387 22.0921 20.5782C22.0921 20.7693 22.0544 20.9586 21.9812 21.1352C21.908 21.3118 21.8007 21.4722 21.6655 21.6073C21.5304 21.7425 21.3699 21.8498 21.1934 21.923C21.0168 21.9962 20.8275 22.0339 20.6364 22.0339C20.4452 22.0339 20.2559 21.9962 20.0794 21.923C19.9028 21.8498 19.7424 21.7425 19.6073 21.6073L19.5636 21.5636C19.3922 21.396 19.1745 21.2835 18.9386 21.2407C18.7027 21.1979 18.4594 21.2268 18.24 21.3236C18.0249 21.4158 17.8414 21.5689 17.7122 21.764C17.583 21.9591 17.5137 22.1878 17.5127 22.4218V22.5455C17.5127 22.9312 17.3595 23.3012 17.0867 23.574C16.8139 23.8468 16.444 24 16.0582 24C15.6724 24 15.3024 23.8468 15.0297 23.574C14.7569 23.3012 14.6036 22.9312 14.6036 22.5455V22.48C14.598 22.2393 14.5201 22.0058 14.38 21.81C14.2399 21.6141 14.0442 21.4649 13.8182 21.3818C13.5988 21.285 13.3555 21.2561 13.1196 21.2989C12.8836 21.3417 12.6659 21.4542 12.4945 21.6218L12.4509 21.6655C12.3158 21.8007 12.1554 21.908 11.9788 21.9812C11.8022 22.0544 11.613 22.0921 11.4218 22.0921C11.2307 22.0921 11.0414 22.0544 10.8648 21.9812C10.6882 21.908 10.5278 21.8007 10.3927 21.6655C10.2575 21.5304 10.1502 21.3699 10.077 21.1934C10.0038 21.0168 9.96613 20.8275 9.96613 20.6364C9.96613 20.4452 10.0038 20.2559 10.077 20.0794C10.1502 19.9028 10.2575 19.7424 10.3927 19.6073L10.4364 19.5636C10.604 19.3922 10.7165 19.1745 10.7593 18.9386C10.8021 18.7027 10.7732 18.4594 10.6764 18.24C10.5842 18.0249 10.4311 17.8414 10.236 17.7122C10.0409 17.583 9.81221 17.5137 9.57818 17.5127H9.45455C9.06878 17.5127 8.69881 17.3595 8.42603 17.0867C8.15325 16.8139 8 16.444 8 16.0582C8 15.6724 8.15325 15.3024 8.42603 15.0297C8.69881 14.7569 9.06878 14.6036 9.45455 14.6036H9.52C9.76072 14.598 9.99419 14.5201 10.19 14.38C10.3859 14.2399 10.5351 14.0442 10.6182 13.8182C10.715 13.5988 10.7439 13.3555 10.7011 13.1196C10.6583 12.8836 10.5458 12.6659 10.3782 12.4945L10.3345 12.4509C10.1993 12.3158 10.092 12.1554 10.0188 11.9788C9.94562 11.8022 9.90795 11.613 9.90795 11.4218C9.90795 11.2307 9.94562 11.0414 10.0188 10.8648C10.092 10.6882 10.1993 10.5278 10.3345 10.3927C10.4696 10.2575 10.6301 10.1502 10.8066 10.077C10.9832 10.0038 11.1725 9.96613 11.3636 9.96613C11.5548 9.96613 11.7441 10.0038 11.9206 10.077C12.0972 10.1502 12.2576 10.2575 12.3927 10.3927L12.4364 10.4364C12.6078 10.604 12.8255 10.7165 13.0614 10.7593C13.2973 10.8021 13.5406 10.7732 13.76 10.6764H13.8182C14.0333 10.5842 14.2167 10.4311 14.346 10.236C14.4752 10.0409 14.5445 9.81221 14.5455 9.57818V9.45455C14.5455 9.06878 14.6987 8.69881 14.9715 8.42603C15.2443 8.15325 15.6142 8 16 8C16.3858 8 16.7557 8.15325 17.0285 8.42603C17.3013 8.69881 17.4545 9.06878 17.4545 9.45455V9.52C17.4555 9.75403 17.5248 9.98267 17.654 10.1778C17.7833 10.3729 17.9667 10.526 18.1818 10.6182C18.4012 10.715 18.6445 10.7439 18.8804 10.7011C19.1164 10.6583 19.3341 10.5458 19.5055 10.3782L19.5491 10.3345C19.6842 10.1993 19.8446 10.092 20.0212 10.0188C20.1978 9.94562 20.387 9.90795 20.5782 9.90795C20.7693 9.90795 20.9586 9.94562 21.1352 10.0188C21.3118 10.092 21.4722 10.1993 21.6073 10.3345C21.7425 10.4696 21.8498 10.6301 21.923 10.8066C21.9962 10.9832 22.0339 11.1725 22.0339 11.3636C22.0339 11.5548 21.9962 11.7441 21.923 11.9206C21.8498 12.0972 21.7425 12.2576 21.6073 12.3927L21.5636 12.4364C21.396 12.6078 21.2835 12.8255 21.2407 13.0614C21.1979 13.2973 21.2268 13.5406 21.3236 13.76V13.8182C21.4158 14.0333 21.5689 14.2167 21.764 14.346C21.9591 14.4752 22.1878 14.5445 22.4218 14.5455H22.5455C22.9312 14.5455 23.3012 14.6987 23.574 14.9715C23.8468 15.2443 24 15.6142 24 16C24 16.3858 23.8468 16.7557 23.574 17.0285C23.3012 17.3013 22.9312 17.4545 22.5455 17.4545H22.48C22.246 17.4555 22.0173 17.5248 21.8222 17.654C21.6271 17.7833 21.474 17.9667 21.3818 18.1818Z" stroke="currentColor" stroke-width="2" stroke-linecap="round" stroke-linejoin="round"/>
<path d="M16 19C17.6569 19 19 17.6569 19 16C19 14.3431 17.6569 13 16 13C14.3431 13 13 14.3431 13 16C13 17.6569 14.3431 19 16 19Z" stroke="currentColor" stroke-width="2" stroke-linecap="round" stroke-linejoin="round"/>
</svg>
