<svg width="701" height="700" viewBox="0 0 701 700" fill="none" xmlns="http://www.w3.org/2000/svg">
<path d="M566.667 399.834C557.826 399.834 549.348 403.346 543.096 409.597C536.845 415.848 533.333 424.327 533.333 433.167V445.834L484 396.5C466.581 379.219 443.038 369.521 418.5 369.521C393.962 369.521 370.419 379.219 353 396.5L329.667 419.834L247 337.167C229.337 320.354 205.886 310.977 181.5 310.977C157.114 310.977 133.663 320.354 116 337.167L66.6667 386.5V199.834C66.6667 190.993 70.1786 182.515 76.4298 176.264C82.681 170.012 91.1595 166.5 100 166.5H333.333C342.174 166.5 350.652 162.989 356.904 156.737C363.155 150.486 366.667 142.008 366.667 133.167C366.667 124.327 363.155 115.848 356.904 109.597C350.652 103.346 342.174 99.8338 333.333 99.8338H100C73.4784 99.8338 48.043 110.369 29.2893 129.123C10.5357 147.877 0 173.312 0 199.834V599.834C0 626.355 10.5357 651.791 29.2893 670.544C48.043 689.298 73.4784 699.834 100 699.834H500C526.522 699.834 551.957 689.298 570.711 670.544C589.464 651.791 600 626.355 600 599.834V433.167C600 424.327 596.488 415.848 590.237 409.597C583.986 403.346 575.507 399.834 566.667 399.834ZM100 633.167C91.1595 633.167 82.681 629.655 76.4298 623.404C70.1786 617.153 66.6667 608.674 66.6667 599.834V480.834L163.333 384.167C168.23 379.5 174.735 376.897 181.5 376.897C188.265 376.897 194.77 379.5 199.667 384.167L305.333 489.834L448.667 633.167H100ZM533.333 599.834C533.285 606.215 531.181 612.41 527.333 617.5L377 466.5L400.333 443.167C402.723 440.728 405.576 438.79 408.724 437.468C411.872 436.145 415.252 435.463 418.667 435.463C422.081 435.463 425.462 436.145 428.61 437.468C431.758 438.79 434.61 440.728 437 443.167L533.333 540.167V599.834ZM690.333 109.5L590.333 9.50045C587.163 6.46576 583.425 4.08693 579.333 2.50045C571.218 -0.833483 562.115 -0.833483 554 2.50045C549.908 4.08693 546.17 6.46576 543 9.50045L443 109.5C439.892 112.608 437.427 116.298 435.745 120.359C434.063 124.42 433.197 128.772 433.197 133.167C433.197 142.044 436.723 150.557 443 156.834C449.277 163.111 457.79 166.637 466.667 166.637C475.543 166.637 484.056 163.111 490.333 156.834L533.333 113.5V299.834C533.333 308.674 536.845 317.153 543.096 323.404C549.348 329.655 557.826 333.167 566.667 333.167C575.507 333.167 583.986 329.655 590.237 323.404C596.488 317.153 600 308.674 600 299.834V113.5L643 156.834C646.099 159.958 649.785 162.438 653.847 164.13C657.909 165.822 662.266 166.694 666.667 166.694C671.067 166.694 675.424 165.822 679.486 164.13C683.548 162.438 687.234 159.958 690.333 156.834C693.458 153.735 695.937 150.048 697.63 145.986C699.322 141.924 700.193 137.568 700.193 133.167C700.193 128.767 699.322 124.41 697.63 120.348C695.937 116.286 693.458 112.599 690.333 109.5Z" fill="currentColor"/>
</svg>
