<svg width="701" height="700" viewBox="0 0 701 700" fill="none" xmlns="http://www.w3.org/2000/svg">
<path d="M566.667 346.834C557.826 346.834 549.348 350.346 543.096 356.597C536.845 362.848 533.333 371.326 533.333 380.167V445.834L484 396.5C466.581 379.218 443.038 369.521 418.5 369.521C393.962 369.521 370.419 379.218 353 396.5L329.667 419.834L247 337.167C229.337 320.354 205.886 310.977 181.5 310.977C157.114 310.977 133.663 320.354 116 337.167L66.6667 386.5V199.834C66.6667 190.993 70.1786 182.515 76.4298 176.263C82.681 170.012 91.1595 166.5 100 166.5H333.333C342.174 166.5 350.652 162.988 356.904 156.737C363.155 150.486 366.667 142.008 366.667 133.167C366.667 124.326 363.155 115.848 356.904 109.597C350.652 103.346 342.174 99.8336 333.333 99.8336H100C73.4784 99.8336 48.043 110.369 29.2893 129.123C10.5357 147.877 0 173.312 0 199.834V599.834C0 626.355 10.5357 651.791 29.2893 670.544C48.043 689.298 73.4784 699.834 100 699.834H500C526.522 699.834 551.957 689.298 570.711 670.544C589.464 651.791 600 626.355 600 599.834V380.167C600 371.326 596.488 362.848 590.237 356.597C583.986 350.346 575.507 346.834 566.667 346.834ZM100 633.167C91.1595 633.167 82.681 629.655 76.4298 623.404C70.1786 617.153 66.6667 608.674 66.6667 599.834V480.834L163.333 384.167C168.23 379.5 174.735 376.897 181.5 376.897C188.265 376.897 194.77 379.5 199.667 384.167L305.333 489.834L448.667 633.167H100ZM533.333 599.834C533.285 606.215 531.181 612.41 527.333 617.5L377 466.5L400.333 443.167C402.723 440.728 405.576 438.79 408.724 437.467C411.872 436.145 415.252 435.463 418.667 435.463C422.081 435.463 425.462 436.145 428.61 437.467C431.758 438.79 434.61 440.728 437 443.167L533.333 540.167V599.834Z" fill="currentColor"/>
<path fill-rule="evenodd" clip-rule="evenodd" d="M413.707 70.5478C449.231 30.8159 507.417 27.5294 547.155 63.0588L562.91 77.146C574.145 87.1912 574.952 101.618 564.907 112.853C554.861 124.088 540.435 124.895 529.2 114.849L513.444 100.762C496.198 85.3429 466.864 86.9746 451.41 104.259C435.957 121.542 437.605 150.876 454.851 166.295L470.606 180.383C481.841 190.428 482.648 204.855 472.603 216.09C462.557 227.325 448.13 228.131 436.895 218.086L421.14 203.999C381.402 168.469 378.183 110.279 413.707 70.5478ZM578.234 124.769C588.279 113.534 602.706 112.727 613.941 122.773L629.697 136.86C669.434 172.389 672.654 230.579 637.13 270.311C601.605 310.043 543.419 313.329 503.682 277.8L487.926 263.713C476.691 253.667 475.885 239.24 485.93 228.005C495.975 216.771 510.402 215.964 521.637 226.009L537.392 240.096C554.638 255.516 583.973 253.884 599.426 236.6C614.88 219.316 613.231 189.983 595.986 174.563L580.23 160.476C568.995 150.431 568.189 136.004 578.234 124.769ZM465.296 116.673C475.341 105.438 489.768 104.632 501.003 114.677L583.545 188.478C594.779 198.523 595.586 212.95 585.541 224.185C575.496 235.42 561.069 236.227 549.834 226.182L467.292 152.381C456.057 142.335 455.25 127.908 465.296 116.673Z" fill="currentColor"/>
</svg>
