<svg fill="#000000" height="16" width="16" version="1.1" id="Layer_1" xmlns="http://www.w3.org/2000/svg" xmlns:xlink="http://www.w3.org/1999/xlink" 
	 viewBox="0 0 512 512" xml:space="preserve">
<g>
	<g>
		<path d="M456.348,0H55.652C24.966,0,0,24.966,0,55.652v400.696C0,487.034,24.966,512,55.652,512h400.696
			C487.034,512,512,487.034,512,456.348V55.652C512,24.966,487.034,0,456.348,0z M478.609,456.348
			c0,12.275-9.986,22.261-22.261,22.261H55.652c-12.275,0-22.261-9.986-22.261-22.261V55.652c0-12.275,9.986-22.261,22.261-22.261
			h400.696c12.275,0,22.261,9.986,22.261,22.261V456.348z"/>
	</g>
</g>
<g>
	<g>
		<path d="M428.522,66.783H83.478c-9.22,0-16.696,7.475-16.696,16.696v345.043c0,9.22,7.475,16.696,16.696,16.696h345.043
			c9.22,0,16.696-7.475,16.696-16.696V311.659c0-0.003,0-0.008,0-0.011V83.478C445.217,74.258,437.742,66.783,428.522,66.783z
			 M100.174,411.826V351.96l55.652-55.652l43.172,43.172l-72.346,72.347H100.174z M411.826,411.826H173.873l165.605-165.605
			l72.348,72.348V411.826z M411.826,271.347l-60.543-60.543c-6.514-6.516-17.093-6.52-23.611,0L222.609,315.868l-54.978-54.978
			c-6.519-6.519-17.091-6.519-23.611,0l-43.846,43.847V100.174h311.652V271.347z"/>
	</g>
</g>
<g>
	<g>
		<path d="M217.043,133.848c-27.618,0-50.087,22.469-50.087,50.087c0,27.618,22.469,50.087,50.087,50.087
			c27.618,0,50.087-22.469,50.087-50.087C267.13,156.317,244.661,133.848,217.043,133.848z M217.043,200.631
			c-9.206,0-16.696-7.49-16.696-16.696c0-9.206,7.49-16.696,16.696-16.696c9.206,0,16.696,7.49,16.696,16.696
			C233.739,193.141,226.249,200.631,217.043,200.631z"/>
	</g>
</g>
</svg>