<svg width="700" height="654" viewBox="0 0 700 654" fill="none" xmlns="http://www.w3.org/2000/svg">
<path d="M566.667 354C557.826 354 549.348 357.512 543.096 363.763C536.845 370.014 533.333 378.493 533.333 387.333V400L484 350.667C466.581 333.385 443.038 323.687 418.5 323.687C393.962 323.687 370.419 333.385 353 350.667L329.667 374L247 291.333C229.337 274.52 205.886 265.143 181.5 265.143C157.114 265.143 133.663 274.52 116 291.333L66.6667 340.667V154C66.6667 145.159 70.1786 136.681 76.4298 130.43C82.681 124.179 91.1595 120.667 100 120.667H333.333C342.174 120.667 350.652 117.155 356.904 110.904C363.155 104.652 366.667 96.1739 366.667 87.3333C366.667 78.4928 363.155 70.0143 356.904 63.7631C350.652 57.5119 342.174 54 333.333 54H100C73.4784 54 48.043 64.5357 29.2893 83.2893C10.5357 102.043 0 127.478 0 154V554C0 580.522 10.5357 605.957 29.2893 624.711C48.043 643.464 73.4784 654 100 654H500C526.522 654 551.957 643.464 570.711 624.711C589.464 605.957 600 580.522 600 554V387.333C600 378.493 596.488 370.014 590.237 363.763C583.986 357.512 575.507 354 566.667 354ZM100 587.333C91.1595 587.333 82.681 583.821 76.4298 577.57C70.1786 571.319 66.6667 562.841 66.6667 554V435L163.333 338.333C168.23 333.667 174.735 331.063 181.5 331.063C188.265 331.063 194.77 333.667 199.667 338.333L305.333 444L448.667 587.333H100ZM533.333 554C533.285 560.381 531.181 566.576 527.333 571.667L377 420.667L400.333 397.333C402.723 394.894 405.576 392.957 408.724 391.634C411.872 390.311 415.252 389.63 418.667 389.63C422.081 389.63 425.462 390.311 428.61 391.634C431.758 392.957 434.61 394.894 437 397.333L533.333 494.333V554Z" fill="black"/>
<path d="M579.278 20H608.056C647.789 20 680 52.2356 680 92C680 131.764 647.789 164 608.056 164H579.278M521.722 20H492.944C453.211 20 421 52.2356 421 92C421 131.764 453.211 164 492.944 164H521.722M492.944 92H608.056" stroke="black" stroke-width="40" stroke-linecap="round" stroke-linejoin="round"/>
</svg>
