<?xml version="1.0" encoding="utf-8"?><!-- Uploaded to: SVG Repo, www.svgrepo.com, Generator: SVG Repo Mixer Tools -->
<svg fill="#000000" width="800px" height="800px" viewBox="0 0 24 24" xmlns="http://www.w3.org/2000/svg"><path d="M22,3a1,1,0,0,1-1,1H3A1,1,0,0,1,3,2H21A1,1,0,0,1,22,3ZM21,8H16a1,1,0,0,0,0,2h5a1,1,0,0,0,0-2Zm0,6H16a1,1,0,0,0,0,2h5a1,1,0,0,0,0-2ZM3,22H21a1,1,0,0,0,0-2H3a1,1,0,0,0,0,2Zm0-9h7.586L9.293,14.293a1,1,0,1,0,1.414,1.414l3-3a1,1,0,0,0,0-1.414l-3-3A1,1,0,0,0,9.293,9.707L10.586,11H3a1,1,0,0,0,0,2Z"/></svg>